#!OML:ASF H:\BabyWalks\Project 1\Capture day 1\Session 1\baby.ASF
:FULLY-SPECIFIED
:DEGREES
789
root 38.2785 17.1883 1.55018 -178.842 82.3104 -173.152
lowerback 20.7599 -0.80358 4.18838
upperback 6.62302 0.637435 4.16888
thorax -4.42443 0.54867 1.91296
lowerneck 1.38687 -2.88224 8.35361
upperneck -5.21985 -4.29084 -17.4294
head -2.31383 -1.77647 -6.61032
rclavicle 2.66371e-014 -1.74931e-014
rhumerus -45.2229 2.9964 -72.4519
rradius 51.2027
rwrist 0.615217
rhand -21.1311 -20.9116
rfingers 7.12502
rthumb 5.24779 -50.8266
lclavicle 2.66371e-014 -1.74931e-014
lhumerus -54.0735 -3.45645 83.5822
lradius 47.1142
lwrist -8.49795
lhand 4.42942 3.64715
lfingers 7.12502
lthumb 29.8256 31.2659
rfemur -10.0636 9.66275 20.8393
rtibia 34.6638
rfoot -17.6837 -1.74634
rtoes -4.43638
lfemur -20.3647 -1.33943 -10.3054
ltibia 52.1744
lfoot -18.4727 -22.0405
ltoes -13.8801
790
root 38.3694 17.2153 1.544 -179.119 82.5219 -173.553
lowerback 20.5921 -0.712161 4.21326
upperback 6.53729 0.739034 4.14105
thorax -4.43019 0.592561 1.844
lowerneck 1.39772 -2.83429 8.50183
upperneck -5.08192 -4.21194 -17.6523
head -2.27291 -1.7379 -6.71037
rclavicle 2.42517e-014 1.59028e-014
rhumerus -45.0242 3.28935 -72.9743
rradius 52.5828
rwrist -0.614779
rhand -21.205 -20.8673
rfingers 7.12502
rthumb 5.17645 -50.784
lclavicle 2.42517e-014 1.59028e-014
lhumerus -54.6589 -3.32294 83.5478
lradius 46.3149
lwrist -8.6724
lhand 4.75582 3.8119
lfingers 7.12502
lthumb 30.137 31.3743
rfemur -9.56025 9.91227 20.8462
rtibia 34.0371
rfoot -17.6964 -1.74186
rtoes -4.26776
lfemur -20.4271 -1.44951 -10.6089
ltibia 50.3894
lfoot -18.6127 -21.5318
ltoes -13.6448
791
root 38.4597 17.2444 1.53666 -179.321 82.7449 -173.885
lowerback 20.4242 -0.62649 4.24401
upperback 6.45621 0.833737 4.10435
thorax -4.43018 0.63329 1.76421
lowerneck 1.42866 -2.77761 8.65882
upperneck -4.98859 -4.12472 -17.8616
head -2.24679 -1.69344 -6.80807
rclavicle -1.55052e-014 -6.52014e-014
rhumerus -44.8448 3.63748 -73.5236
rradius 54.0226
rwrist -1.81805
rhand -21.0796 -20.8331
rfingers 7.12502
rthumb 5.29753 -50.7468
lclavicle -1.55052e-014 -6.52014e-014
lhumerus -55.2496 -3.18845 83.4975
lradius 45.6487
lwrist -8.71576
lhand 4.9934 4.01421
lfingers 7.12502
lthumb 30.3637 31.535
rfemur -9.06851 10.147 20.8549
rtibia 33.4081
rfoot -17.7069 -1.7087
rtoes -4.09063
lfemur -20.4606 -1.61502 -10.8909
ltibia 48.5225
lfoot -18.7123 -21.0393
ltoes -13.4254
792
root 38.5489 17.2715 1.52821 -179.428 82.9762 -174.132
lowerback 20.2659 -0.544734 4.28248
upperback 6.37297 0.925078 4.05936
thorax -4.4367 0.672245 1.67234
lowerneck 1.49059 -2.71541 8.81627
upperneck -4.93676 -4.03282 -18.048
head -2.23657 -1.64461 -6.89868
rclavicle -3.18055e-015 -7.95139e-015
rhumerus -44.6966 4.03054 -74.0957
rradius 55.5145
rwrist -2.97412
rhand -20.7841 -20.8092
rfingers 7.12502
rthumb 5.58276 -50.7157
lclavicle -3.18055e-015 -7.95139e-015
lhumerus -55.8457 -3.06749 83.4373
lradius 45.106
lwrist -8.61226
lhand 5.1767 4.23577
lfingers 7.12502
lthumb 30.5385 31.7242
rfemur -8.60243 10.3644 20.8663
rtibia 32.7907
rfoot -17.7179 -1.6484
rtoes -3.91248
lfemur -20.4878 -1.83812 -11.1415
ltibia 46.6074
lfoot -18.7849 -20.5516
ltoes -13.2288
793
root 38.6372 17.297 1.51865 -179.451 83.2213 -174.3
lowerback 20.1129 -0.464485 4.32334
upperback 6.29263 1.01499 4.00836
thorax -4.44218 0.710605 1.5734
lowerneck 1.56809 -2.64543 8.97155
upperneck -4.91454 -3.93239 -18.2124
head -2.23555 -1.59051 -6.98228
rclavicle -3.18055e-015 -2.70347e-014
rhumerus -44.5729 4.46498 -74.6824
rradius 57.048
rwrist -4.06209
rhand -20.3595 -20.7798
rfingers 7.12502
rthumb 5.99275 -50.675
lclavicle -3.18055e-015 -2.70347e-014
lhumerus -56.4402 -2.96486 83.377
lradius 44.6828
lwrist -8.36406
lhand 5.33194 4.48527
lfingers 7.12502
lthumb 30.6865 31.946
rfemur -8.14858 10.5697 20.878
rtibia 32.1653
rfoot -17.7143 -1.55504
rtoes -3.70827
lfemur -20.5017 -2.11942 -11.359
ltibia 44.6498
lfoot -18.8285 -20.0471
ltoes -13.0552
794
root 38.7243 17.3208 1.50791 -179.317 83.4824 -174.316
lowerback 19.9743 -0.385209 4.37392
upperback 6.20961 1.10663 3.95446
thorax -4.45722 0.749662 1.46576
lowerneck 1.63954 -2.57164 9.12615
upperneck -4.89617 -3.82677 -18.3579
head -2.23314 -1.53469 -7.06005
rclavicle 2.22639e-014 -1.11319e-014
rhumerus -44.4822 4.93783 -75.277
rradius 58.6108
rwrist -5.07486
rhand -19.8391 -20.7258
rfingers 7.12502
rthumb 6.49513 -50.6062
lclavicle 2.22639e-014 -1.11319e-014
lhumerus -57.0355 -2.88106 83.3207
lradius 44.3698
lwrist -7.98508
lhand 5.48997 4.75881
lfingers 7.12502
lthumb 30.8372 32.1912
rfemur -7.71151 10.7655 20.8982
rtibia 31.5474
rfoot -17.7024 -1.4279
rtoes -3.46481
lfemur -20.5091 -2.45771 -11.5311
ltibia 42.6822
lfoot -18.8709 -19.5107
ltoes -12.9401
795
root 38.8103 17.3433 1.49633 -179.006 83.7609 -174.163
lowerback 19.8399 -0.305248 4.42717
upperback 6.12856 1.20008 3.89986
thorax -4.47174 0.789674 1.35578
lowerneck 1.70646 -2.4921 9.27516
upperneck -4.88486 -3.71365 -18.4802
head -2.23002 -1.47585 -7.1298
rclavicle 1.27222e-014 1.43125e-014
rhumerus -44.4137 5.44529 -75.8784
rradius 60.188
rwrist -6.00328
rhand -19.2759 -20.6178
rfingers 7.12502
rthumb 7.0388 -50.4808
lclavicle 1.27222e-014 1.43125e-014
lhumerus -57.6211 -2.81167 83.2701
lradius 44.155
lwrist -7.50546
lhand 5.66088 5.04269
lfingers 7.12502
lthumb 31.0001 32.4441
rfemur -7.29588 10.9563 20.928
rtibia 30.9341
rfoot -17.6844 -1.27718
rtoes -3.21532
lfemur -20.5169 -2.84951 -11.6541
ltibia 40.7259
lfoot -18.9241 -18.9272
ltoes -12.8788
796
root 38.8952 17.3644 1.48391 -178.51 84.0564 -173.829
lowerback 19.7137 -0.222861 4.48418
upperback 6.04941 1.29817 3.84452
thorax -4.48777 0.832027 1.2421
lowerneck 1.7735 -2.40499 9.41511
upperneck -4.87698 -3.58989 -18.5784
head -2.22541 -1.41232 -7.19053
rclavicle -1.90833e-014 -6.67916e-014
rhumerus -44.3677 5.9783 -76.4819
rradius 61.7672
rwrist -6.83653
rhand -18.6928 -20.4655
rfingers 7.12502
rthumb 7.60171 -50.3089
lclavicle -1.90833e-014 -6.67916e-014
lhumerus -58.192 -2.76042 83.2265
lradius 44.0273
lwrist -6.95999
lhand 5.86433 5.33351
lfingers 7.12502
lthumb 31.194 32.6978
rfemur -6.89658 11.1447 20.9674
rtibia 30.3256
rfoot -17.6625 -1.1127
rtoes -2.97532
lfemur -20.526 -3.29557 -11.727
ltibia 38.8045
lfoot -18.9883 -18.2868
ltoes -12.8677
797
root 38.979 17.3838 1.4707 -177.727 84.3748 -173.212
lowerback 19.593 -0.137349 4.54555
upperback 5.97501 1.40202 3.79197
thorax -4.50086 0.877441 1.12793
lowerneck 1.82856 -2.30949 9.5533
upperneck -4.8649 -3.45418 -18.6617
head -2.21514 -1.34413 -7.24665
rclavicle -9.14409e-015 2.06736e-014
rhumerus -44.3369 6.53885 -77.0861
rradius 63.3365
rwrist -7.571
rhand -18.1035 -20.2648
rfingers 7.12502
rthumb 8.17046 -50.0869
lclavicle -9.14409e-015 2.06736e-014
lhumerus -58.7371 -2.72021 83.1917
lradius 43.9705
lwrist -6.3673
lhand 6.09394 5.63168
lfingers 7.12502
lthumb 31.4128 32.9536
rfemur -6.51609 11.3368 21.0241
rtibia 29.7244
rfoot -17.6266 -0.93483
rtoes -2.74473
lfemur -20.5409 -3.78079 -11.7407
ltibia 36.9427
lfoot -19.0532 -17.5842
ltoes -12.8946
